<?xml version="1.0" encoding="iso-8859-1"?>
<!-- Generator: Adobe Illustrator 19.0.0, SVG Export Plug-In . SVG Version: 6.00 Build 0)  -->
<svg version="1.1" id="Capa_1" xmlns="http://www.w3.org/2000/svg" xmlns:xlink="http://www.w3.org/1999/xlink" x="0px" y="0px"
	 viewBox="0 0 512 512" style="enable-background:new 0 0 512 512;" xml:space="preserve">
<circle style="fill:#FFDC00;" cx="256" cy="256" r="256"/>
<path style="fill:#FFC000;" d="M512,256c0-5.199-0.174-10.357-0.479-15.479L370.5,99.5l-24.401,33.524l-44.497-44.497l-3.979,4.34
	l-28.211-28.21L236.5,77l64.589,117.863L141.5,412.5l99.021,99.021C245.643,511.826,250.801,512,256,512
	C397.385,512,512,397.385,512,256z"/>
<rect x="141.5" y="99.5" style="fill:#FF6838;" width="229" height="313"/>
<rect x="255.67" y="99.5" style="fill:#AE4E32;" width="114.83" height="313"/>
<rect x="161" y="119.33" style="fill:#FFFFFF;" width="190" height="273.33"/>
<rect x="255.67" y="119.33" style="fill:#E0E0E0;" width="95.33" height="273.33"/>
<path style="fill:#4B7689;" d="M277.667,81.667C277.667,69.701,267.966,60,256,60s-21.667,9.701-21.667,21.667h-9.417
	c-10.378,0-18.792,8.413-18.792,18.792V128h99.75v-27.542c0-10.378-8.413-18.792-18.792-18.792L277.667,81.667L277.667,81.667z
	 M256,71.146c5.811,0,10.521,4.71,10.521,10.521c0,5.811-4.71,10.521-10.521,10.521s-10.521-4.71-10.521-10.521
	C245.479,75.856,250.189,71.146,256,71.146z"/>
<path style="fill:#175D76;" d="M305.875,100.458c0-10.378-8.413-18.792-18.792-18.792h-9.417C277.667,69.701,267.966,60,256,60
	c-0.112,0-0.222,0.007-0.333,0.008v11.154c0.112-0.003,0.221-0.017,0.333-0.017c5.811,0,10.521,4.71,10.521,10.521
	S261.811,92.188,256,92.188c-0.113,0-0.222-0.013-0.333-0.017V128h50.208V100.458z"/>
<rect x="246.806" y="170.556" transform="matrix(-0.7558 -0.6548 0.6548 -0.7558 281.4378 622.5601)" style="fill:#005C83;" width="20" height="176.49"/>
<g>
	<polygon style="fill:#00263F;" points="307.015,185.562 255.667,244.826 255.667,275.368 322.13,198.658 	"/>
	<polygon style="fill:#00263F;" points="314.112,244.42 310.702,196.577 262.86,200.015 281.713,178.256 329.541,174.833 
		332.964,222.662 	"/>
</g>
<path style="fill:#005C83;" d="M202.25,234.5c-18.886,0-34.25-15.364-34.25-34.25S183.364,166,202.25,166s34.25,15.364,34.25,34.25
	S221.136,234.5,202.25,234.5z M202.25,186c-7.857,0-14.25,6.393-14.25,14.25s6.393,14.25,14.25,14.25s14.25-6.393,14.25-14.25
	S210.107,186,202.25,186z"/>
<g transform="matrix(0.7071 0.7071 -0.7071 0.7071 316.57 -113.26)">
	<rect x="285" y="288.73" style="fill:#00263F;" width="20" height="73.54"/>
	<rect x="258.23" y="315.5" style="fill:#00263F;" width="73.54" height="20"/>
</g>
<g>
</g>
<g>
</g>
<g>
</g>
<g>
</g>
<g>
</g>
<g>
</g>
<g>
</g>
<g>
</g>
<g>
</g>
<g>
</g>
<g>
</g>
<g>
</g>
<g>
</g>
<g>
</g>
<g>
</g>
</svg>
