<?xml version="1.0" encoding="iso-8859-1"?>
<!-- Generator: Adobe Illustrator 19.0.0, SVG Export Plug-In . SVG Version: 6.00 Build 0)  -->
<svg version="1.1" id="Capa_1" xmlns="http://www.w3.org/2000/svg" xmlns:xlink="http://www.w3.org/1999/xlink" x="0px" y="0px"
	 viewBox="0 0 469.333 469.333" style="enable-background:new 0 0 469.333 469.333;" xml:space="preserve">
<path style="fill:#303C42;" d="M426.667,0h-384C19.135,0,0,19.135,0,42.667v384c0,23.531,19.135,42.667,42.667,42.667h384
	c23.531,0,42.667-19.135,42.667-42.667v-384C469.333,19.135,450.198,0,426.667,0z"/>
<path style="fill:#D7CCC8;" d="M448,426.667c0,11.76-9.573,21.333-21.333,21.333h-384c-11.76,0-21.333-9.573-21.333-21.333v-384
	c0-11.76,9.573-21.333,21.333-21.333h384c11.76,0,21.333,9.573,21.333,21.333V426.667z"/>
<path style="fill:#303C42;" d="M234.667,64c-51.281,0-99.5,19.969-135.76,56.24c-4.167,4.167-4.167,10.917,0,15.083l60.333,60.333
	c4.167,4.167,10.917,4.167,15.083,0c33.271-33.271,87.417-33.271,120.688,0c2.083,2.083,4.813,3.125,7.542,3.125
	s5.458-1.042,7.542-3.125l60.333-60.333c4.167-4.167,4.167-10.917,0-15.083C334.167,83.969,285.948,64,234.667,64z"/>
<path style="fill:#F2F2F2;" d="M302.177,173.406c-19.563-16.021-43.542-24.031-67.51-24.031c-10.073,0-20.078,1.741-29.826,4.57
	l-13.799-30.362c-2.417-5.354-8.729-7.75-14.125-5.292c-5.365,2.438-7.729,8.76-5.292,14.125l13.361,29.395
	c-6.214,3.271-12.236,7.013-17.829,11.595L121.76,128.01c31.198-27.604,70.896-42.677,112.906-42.677s81.708,15.073,112.906,42.677
	L302.177,173.406z"/>
<linearGradient id="SVGID_1_" gradientUnits="userSpaceOnUse" x1="-56.0543" y1="618.2407" x2="-43.7947" y2="605.979" gradientTransform="matrix(21.3333 0 0 -21.3333 1430.1112 13315.2227)">
	<stop  offset="0" style="stop-color:#000000;stop-opacity:0.1"/>
	<stop  offset="1" style="stop-color:#000000;stop-opacity:0"/>
</linearGradient>
<path style="fill:url(#SVGID_1_);" d="M448,426.667V197.553l-74.448-74.448l-0.719,0.091c1.401,3.786,0.637,8.194-2.406,11.237
	l-60.333,60.333c-2.083,2.083-4.813,3.125-7.542,3.125s-5.458-1.042-7.542-3.125c-33.271-33.271-87.417-33.271-120.688,0
	c-3.02,3.02-7.383,3.78-11.15,2.422l-0.029,0.031L413.924,448h12.742C438.427,448,448,438.427,448,426.667z"/>
<linearGradient id="SVGID_2_" gradientUnits="userSpaceOnUse" x1="-68.6888" y1="619.0512" x2="-43.3842" y2="607.2509" gradientTransform="matrix(21.3333 0 0 -21.3333 1430.1112 13315.2227)">
	<stop  offset="0" style="stop-color:#FFFFFF;stop-opacity:0.2"/>
	<stop  offset="1" style="stop-color:#FFFFFF;stop-opacity:0"/>
</linearGradient>
<path style="fill:url(#SVGID_2_);" d="M426.667,0h-384C19.135,0,0,19.135,0,42.667v384c0,23.531,19.135,42.667,42.667,42.667h384
	c23.531,0,42.667-19.135,42.667-42.667v-384C469.333,19.135,450.198,0,426.667,0z"/>
<g>
</g>
<g>
</g>
<g>
</g>
<g>
</g>
<g>
</g>
<g>
</g>
<g>
</g>
<g>
</g>
<g>
</g>
<g>
</g>
<g>
</g>
<g>
</g>
<g>
</g>
<g>
</g>
<g>
</g>
</svg>
